<svg id="Logo" xmlns="http://www.w3.org/2000/svg" viewBox="0 0 330.16 78.81"><defs><style>.cls-1,.cls-2{fill:#211915;}.cls-1{stroke:#211915;stroke-miterlimit:10;}</style></defs><title>LogoSergio</title><polygon class="cls-1" points="0.65 17.68 13.23 17.68 22.9 57.58 13.95 66.52 0.65 17.68"/><polygon class="cls-1" points="19.69 77.3 31.61 77.3 39.87 44.97 48.12 77.3 63.25 77.3 77.7 17.68 64.86 17.68 56.6 62.63 54.77 62.4 45.6 17.68 34.13 17.68 19.69 77.3"/><rect class="cls-1" x="80.91" y="35.34" width="10.78" height="41.96"/><rect class="cls-1" x="80.91" y="17.68" width="10.78" height="10.32"/><path class="cls-1" d="M133.91,63.06h11V3.44h-11V63.06Z" transform="translate(-3.24 14.24)"/><path class="cls-1" d="M133.46,25a17.83,17.83,0,0,0-8.17-4.75A18.74,18.74,0,0,0,112.24,22a22,22,0,0,0-10.58,11.82,22.65,22.65,0,0,0-.93,12.26,21.27,21.27,0,0,0,6.35,12.34,20.74,20.74,0,0,0,13.37,5.24,28.39,28.39,0,0,0,7.8-.13l.09,0A4.27,4.27,0,0,0,131,60.2a5.14,5.14,0,0,0-1.15-3.93c-2.61-3.3-7-.85-11.6-3.18-4.12-2.09-7.69-7.71-6.57-13.32a11.72,11.72,0,0,1,8.89-9.1c5.87-1.22,11.2,2.66,13,6.63a9.65,9.65,0,0,1,.57,1.71" transform="translate(-3.24 14.24)"/><path class="cls-1" d="M170.14,47h21.78a27.29,27.29,0,0,0-1.26-12.27,20.74,20.74,0,0,0-5.73-9.29,20.41,20.41,0,0,0-13.42-4.91A20.63,20.63,0,0,0,159,24.42a21.46,21.46,0,0,0-8,12.85c-.45,2-2.19,9.5,2.37,16.84a21.94,21.94,0,0,0,14.33,9.64c12.37,2.21,21.07-7.81,21.44-8.26l-9.86-4.36a9.25,9.25,0,0,1-4.24,3c-4.77,1.54-10.32-1.57-12.91-5.84a12.25,12.25,0,0,1-.27-12.5c.32-.55,3.29-5.32,8.72-5.51,4.61-.16,9,3.07,10.77,8L166,38.18Z" transform="translate(-3.24 14.24)"/><path class="cls-1" d="M269.08,49.87l-8.94-6.19a18.09,18.09,0,0,1-9.73,8.58,16.72,16.72,0,0,1-6.89.82c-7.61-.67-15.45-6.7-17.32-15a18.63,18.63,0,0,1,.35-9c.18-.65,3.46-11.19,13.41-13.3,7.41-1.57,15.4,2.19,19.49,9.4l9.63-7.45c-2.14-2.81-7.89-9.6-16.51-11.93a38.76,38.76,0,0,0-8.37-1.14,30.67,30.67,0,0,0-9.51.91,28,28,0,0,0-12.84,7.91c-7.2,7.7-9.91,20.09-6.08,31,3.12,8.84,10.55,16.59,18.46,18.57a39.74,39.74,0,0,0,10.2.92,40.41,40.41,0,0,0,8.37-1.15C261.48,60.35,267,53,269.08,49.87Z" transform="translate(-3.24 14.24)"/><text x="-3.24" y="14.24"/><path class="cls-2" d="M294.7,20.87A19.53,19.53,0,0,1,309.48,27q5.81,6.07,5.81,15.72t-5.83,15.48q-5.83,5.73-15.75,5.73a19.36,19.36,0,0,1-14.79-6.09q-5.71-6.1-5.71-16a20.06,20.06,0,0,1,6-15Q285.25,20.87,294.7,20.87Zm-.55,31a8.45,8.45,0,0,0,6.52-2.91,10.63,10.63,0,0,0,2.64-7.4,12.55,12.55,0,0,0-2.39-8,7.72,7.72,0,0,0-6.37-3,8.58,8.58,0,0,0-6.77,2.94,11.32,11.32,0,0,0-2.59,7.76,11.32,11.32,0,0,0,2.59,7.52A8,8,0,0,0,294.15,51.82Z" transform="translate(-3.24 14.24)"/><path class="cls-2" d="M321.34,59.52A6.22,6.22,0,0,0,327,63.88a6.4,6.4,0,0,0,6.42-5.73,6.5,6.5,0,0,0-6.19-7C323.27,51.2,320.25,55.81,321.34,59.52Z" transform="translate(-3.24 14.24)"/></svg>